<?xml version="1.0" encoding="UTF-8"?>
<svg xmlns="http://www.w3.org/2000/svg" xmlns:xlink="http://www.w3.org/1999/xlink" width="75pt" height="74.999997pt" viewBox="0 0 75 74.999997" version="1.2">
<g id="surface1">
<path style=" stroke:none;fill-rule:evenodd;fill:rgb(15.689087%,14.898682%,18.03894%);fill-opacity:1;" d="M 75 37.5 C 75 58.203125 58.203125 75 37.5 75 C 16.796875 75 0 58.203125 0 37.5 C 0 16.796875 16.796875 0 37.5 0 C 58.203125 0 75 16.796875 75 37.5 Z M 75 37.5 "/>
<path style=" stroke:none;fill-rule:evenodd;fill:rgb(100%,56.469727%,0%);fill-opacity:1;" d="M 10.015625 51.152344 C 15.039062 61.238281 25.460938 68.183594 37.5 68.183594 C 49.554688 68.183594 59.980469 61.238281 65.003906 51.136719 C 65.535156 50.035156 54.4375 40.910156 37.5 40.910156 C 20.5625 40.910156 9.464844 50.035156 10.015625 51.152344 Z M 10.015625 51.152344 "/>
<path style=" stroke:none;fill-rule:evenodd;fill:rgb(100%,56.469727%,0%);fill-opacity:1;" d="M 51.136719 20.453125 C 51.136719 27.984375 45.027344 34.089844 37.5 34.089844 C 29.972656 34.089844 23.863281 27.984375 23.863281 20.453125 C 23.863281 12.925781 29.972656 6.816406 37.5 6.816406 C 45.027344 6.816406 51.136719 12.925781 51.136719 20.453125 Z M 51.136719 20.453125 "/>
</g>
</svg>
